# xmcd
#
# Track frame offsets:
#	150
#	19330
#	36599
#	55586
#	80449
#	104054
#	126438
#	155021
#	172940
#	194996
#	227914
#	259807
#	297149
#	335932
#
# Disc length: 4752 seconds
#
# Revision: 1
# Processed by: cddbd v1.5.2PL0 Copyright (c) Steve Scherf et al.
# Submitted via: audiograbber 1.83.01
#
DISCID=db128e0e
DTITLE=HHOMADEWHO - KNEE DEEP
DYEAR=2012
DGENRE=Elektopop
TTITLE0=There's an answer
TTITLE1=Every minute alone
TTITLE2=Musketeer
TTITLE3=All that i am
TTITLE4=Nothing has changed
TTITLE5=Too feed of ground
TTITLE6=Checkers
TTITLE7=We're alive, it's a miracle
TTITLE8=555
TTITLE9=Every minute alone - Michael Mayer Mix
TTITLE10=Every minute alone - The Circle Mix
TTITLE11=Every minute alone - Spleen United Mix
TTITLE12=Every minute alone - Renaissance Man Mix
TTITLE13=Daten-CD
EXTD=
EXTT0=
EXTT1=
EXTT2=
EXTT3=
EXTT4=
EXTT5=
EXTT6=
EXTT7=
EXTT8=
EXTT9=
EXTT10=
EXTT11=
EXTT12=
EXTT13=
PLAYORDER=
